name C:\Users\u0101727\Documents\MyRepositories\upper-imu-dc\Results\main_tracking\Case_45\FLX01_angularVelocities_bodyFrame.mot
datacolumns 4
datarows 58
range 5.00600000 5.34800000
endheader 
time	radius_imu_x	radius_imu_y	radius_imu_z	
          5.00600000	          1.37970392	         -0.37244375	          0.56782591	
          5.01200000	          1.35579239	         -0.36606321	          0.60766337	
          5.01800000	          1.33155003	         -0.35848436	          0.64793923	
          5.02400000	          1.30709065	         -0.34963936	          0.68850851	
          5.03000000	          1.28255490	         -0.33943282	          0.72924402	
          5.03600000	          1.25810761	         -0.32773870	          0.77003801	
          5.04200000	          1.23391681	         -0.31441659	          0.81080006	
          5.04800000	          1.21011289	         -0.29935410	          0.85145440	
          5.05400000	          1.18676457	         -0.28249877	          0.89193753	
          5.06000000	          1.16390627	         -0.26383655	          0.93219288	
          5.06600000	          1.14158292	         -0.24334183	          0.97216509	
          5.07200000	          1.11986800	         -0.22095014	          1.01179849	
          5.07800000	          1.09885735	         -0.19655848	          1.05103784	
          5.08400000	          1.07865668	         -0.17003875	          1.08982829	
          5.09000000	          1.05937156	         -0.14125831	          1.12811442	
          5.09600000	          1.04110091	         -0.11009621	          1.16583935	
          5.10200000	          1.02393316	         -0.07645855	          1.20294428	
          5.10800000	          1.00794411	         -0.04028915	          1.23936872	
          5.11400000	          0.99319566	         -0.00157340	          1.27505112	
          5.12000000	          0.97973518	          0.03966132	          1.30992960	
          5.12600000	          0.96759532	          0.08334726	          1.34394278	
          5.13200000	          0.95679371	          0.12938139	          1.37703021	
          5.13800000	          0.94733301	          0.17763049	          1.40913253	
          5.14400000	          0.93920127	          0.22793380	          1.44019129	
          5.15000000	          0.93237242	          0.28010538	          1.47014828	
          5.15600000	          0.92680698	          0.33393396	          1.49894471	
          5.16200000	          0.92245251	          0.38918241	          1.52652008	
          5.16800000	          0.91924390	          0.44558673	          1.55281107	
          5.17400000	          0.91710324	          0.50285499	          1.57775080	
          5.18000000	          0.91593949	          0.56066761	          1.60126832	
          5.18600000	          0.91564801	          0.61867748	          1.62328877	
          5.19200000	          0.91611064	          0.67651296	          1.64373411	
          5.19800000	          0.91719622	          0.73378230	          1.66252423	
          5.20400000	          0.91876181	          0.79007884	          1.67957858	
          5.21000000	          0.92065483	          0.84499026	          1.69481786	
          5.21600000	          0.92271595	          0.89810573	          1.70816564	
          5.22200000	          0.92478282	          0.94902755	          1.71954969	
          5.22800000	          0.92669439	          0.99738190	          1.72890293	
          5.23400000	          0.92829533	          1.04282534	          1.73616393	
          5.24000000	          0.92944035	          1.08505260	          1.74127703	
          5.24600000	          0.92999837	          1.12380034	          1.74419213	
          5.25200000	          0.92985640	          1.15884981	          1.74486419	
          5.25800000	          0.92892297	          1.19002687	          1.74325269	
          5.26400000	          0.92713116	          1.21719876	          1.73932130	
          5.27000000	          0.92444106	          1.24026871	          1.73303759	
          5.27600000	          0.92084145	          1.25917036	          1.72437304	
          5.28200000	          0.91635043	          1.27385987	          1.71330307	
          5.28800000	          0.91101488	          1.28430860	          1.69980718	
          5.29400000	          0.90490894	          1.29049814	          1.68386915	
          5.30000000	          0.89813146	          1.29241537	          1.66547714	
          5.30600000	          0.89080243	          1.29004987	          1.64462354	
          5.31200000	          0.88305816	          1.28339206	          1.62130474	
          5.31800000	          0.87504567	          1.27243243	          1.59552051	
          5.32400000	          0.86691703	          1.25716233	          1.56727352	
          5.33000000	          0.85882341	          1.23757525	          1.53656859	
          5.33600000	          0.85090960	          1.21366871	          1.50341223	
          5.34200000	          0.84330912	          1.18544680	          1.46781234	
          5.34800000	          0.83614051	          1.15292271	          1.42977840	
